<svg xmlns="http://www.w3.org/2000/svg" width="63" height="32" viewBox="-5.185305 -4.205825 44.93931 25.23495"><path d="M1.8926 15.8053h31.478V1.2648H1.8926z" fill="#fff"/><path d="M9.7987 13.494v.2223c0 .237.0603.4138.3094.4138.1037 0 .2222-.009.2772-.0205V13.101c-.055-.0117-.1735-.0201-.2772-.0201-.2491 0-.3094.176-.3094.413M5.1246 6.8213H4.0218V8.663c.1574 0 .6693.01.8075.01 1.0146 0 1.3392-.315 1.3392-.8664V7.698c0-.4728-.2554-.8767-1.0439-.8767m18.1196 6.2767c-.1788 0-.3094.127-.3094.3557v.0113h.6132v-.0113c0-.2258-.1242-.3556-.3038-.3556m-5.0296-.0001c-.2025 0-.3094.1532-.3094.3902v.234c0 .2374.107.3901.3094.3901.2025 0 .309-.1527.309-.3902v-.2339c0-.237-.1065-.3901-.309-.3901M6.1298 4.8713v-.1475c0-.5425-.3447-.7884-1.3593-.7884-.158 0-.6106 0-.7486.01V5.65h1.1028c.7782 0 1.005-.3549 1.005-.7782m8.065 8.6222v.2223c0 .237.0606.4138.3094.4138.1037 0 .2226-.009.2772-.0205V13.101a2.3788 2.3788 0 00-.2772-.0201c-.2488 0-.3094.176-.3094.413m-8.1502.0001v.2223c0 .237.0606.4138.3094.4138.1037 0 .2226-.009.2772-.0205V13.101a2.3788 2.3788 0 00-.2772-.0201c-.2488 0-.3094.176-.3094.413m20.5453-6.8791c0-.7292-.3348-1.0936-.8865-1.0936-.5415 0-.906.3743-.906 1.0936v.0388h1.7925zM12.8552 13.098c-.1789 0-.309.127-.309.3557v.0113h.6127v-.0113c0-.2258-.1242-.3556-.3037-.3556M4.705 13.098c-.1789 0-.3094.127-.3094.3557v.0113h.6131v-.0113c0-.2258-.1242-.3556-.3037-.3556" fill="#1476c6"/><path d="M32.8404 0H1.7286C.7736 0 0 .7736 0 1.7286V15.095c0 .9546.7736 1.7283 1.7286 1.7283h31.1118c.9547 0 1.7283-.7737 1.7283-1.7283V1.7286C34.5687.7736 33.795 0 32.8404 0m-9.6192 6.8312c0-1.5861.9257-2.5905 2.492-2.5905 1.615 0 2.4328 1.1028 2.4328 2.5905v.5711c0 .1479-.0786.2368-.2064.2368h-3.1425v.0198c0 .5612.2367 1.0735 1.0146 1.0735.6202 0 1.4975-.0494 1.8912-.089h.0297c.1086 0 .1873.049.1873.158v.7487c0 .157-.0395.2261-.2074.266-.6301.1573-1.1624.2363-2.019.2363-1.1917 0-2.4723-.6304-2.4723-2.5318zM3.6837 14.2889c0 .0434-.0116.0603-.078.078-.1792.0462-.3961.0752-.581.0752-.4653 0-.6907-.2744-.6907-.7257v-.2222c0-.4512.2254-.7257.6907-.7257.0695 0 .1708.006.2773.0201v-.5115a.0582.0582 0 01.0582-.0579h.2657a.0579.0579 0 01.0578.0579zm1.7092-.6244c0 .0462-.0176.0723-.0575.0723h-.9426v.009c0 .1676.0698.3669.3471.3669.211 0 .4107-.0173.5317-.029H5.28c.0292 0 .0522.0146.0522.0435v.1908c0 .0462-.0088.0663-.0607.0751-.188.035-.3006.049-.5606.049-.2889 0-.6995-.1559-.6995-.7256v-.2138c0-.4509.2515-.7341.6935-.7341.4456 0 .688.3033.688.734zm1.6196.6244c0 .0434-.0113.0603-.0776.078-.1796.0462-.3962.0752-.5814.0752-.465 0-.6907-.2744-.6907-.7257v-.2222c0-.4512.2258-.7257.6907-.7257.0699 0 .1708.006.2777.0201v-.5115a.0581.0581 0 01.0578-.0579h.266a.0576.0576 0 01.0575.0579zm.7677.0692c0 .0317-.0265.061-.0582.061h-.2657c-.032 0-.0579-.0293-.0579-.061v-1.5116a.058.058 0 01.058-.058h.2656a.0584.0584 0 01.0582.058zm.0085-1.844a.058.058 0 01-.0579.058h-.2805c-.0314 0-.0606-.0258-.0606-.058v-.2543c0-.0318.0292-.0575.0606-.0575h.2805a.0578.0578 0 01.0579.0575zm.0155-4.6683c0 1.7336-1.3988 2.2067-3.1027 2.2067-.6502 0-1.4189-.0497-1.8023-.1186-.3948-.0684-.5423-.1968-.5423-.6403V3.305c0-.4431.138-.581.5225-.64.3351-.049 1.132-.1086 1.7625-.1086 1.862 0 3.1132.4925 3.1132 2.0584v.1775c0 .6406-.3058 1.1924-.8276 1.4481.5218.2562.8767.778.8767 1.4577zm1.3956 5.2233c0 .0289-.0233.0434-.0522.0434H9.139c-.1158-.0145-.1852-.0201-.373-.0201-.1357 0-.2776.078-.2776.3788v.2685c0 .3006.1419.3789.2777.3789.1877 0 .2571-.006.3729-.0205h.0085c.0289 0 .0522.0145.0522.0434v.188c0 .0462-.0117.0635-.0607.0751-.0667.0173-.1965.0374-.3729.0374-.376 0-.659-.231-.659-.7024v-.2684c0-.4713.283-.7028.659-.7028.1764 0 .3062.0201.3729.0374.049.0116.0607.0293.0607.0755zm1.567 1.2199c0 .0434-.0116.0603-.0783.078-.1789.0462-.3955.0752-.5807.0752-.4656 0-.691-.2745-.691-.7257v-.2223c0-.4512.2254-.7256.691-.7256.1852 0 .4018.0289.5807.075.0667.0177.0783.035.0783.0784zm1.2118-1.2718a.0577.0577 0 01-.0575.0579h-.4075v.9335c0 .1157.0519.1358.1764.1358h.228c.0377 0 .0606.0145.0606.0434v.1792c0 .0289-.017.0462-.0547.0522-.0695.0113-.217.0229-.3383.0229-.286 0-.4565-.0981-.4565-.4336V12.552c0-.0321.0261-.0522.0579-.058l.2684-.0465h.0088c.0262 0 .0494.0293.0494.0582v.283h.4075a.0576.0576 0 01.0575.0578zm1.5646.6473c0 .0462-.0173.0723-.0575.0723h-.9427v.009c0 .1676.0699.367.3475.367.2106 0 .41-.0174.5313-.029h.0085c.0293 0 .0522.0145.0522.0434v.1909c0 .0462-.0085.0663-.0607.075-.188.035-.3005.049-.5605.049-.289 0-.6996-.1558-.6996-.7256v-.2138c0-.4508.2512-.7341.6936-.7341.4452 0 .6879.3034.6879.7341zm.0832-6.2621c0 .1478-.0797.2367-.2074.2367h-3.1415v.0198c0 .5613.2357 1.0735 1.0139 1.0735.6205 0 1.4972-.0494 1.8909-.0889h.0303c.108 0 .1866.049.1866.158v.7486c0 .157-.0391.2262-.2063.266-.6308.1574-1.1624.2364-2.019.2364-1.1927 0-2.4726-.6304-2.4726-2.5319v-.6893c0-1.5861.926-2.5905 2.4917-2.5905 1.6153 0 2.4334 1.1028 2.4334 2.5905zm1.5364 6.8866c0 .0434-.0113.0603-.0776.078-.1796.0462-.3962.0752-.581.0752-.4654 0-.6908-.2745-.6908-.7257v-.2223c0-.4512.2254-.7256.6907-.7256.0692 0 .1704.006.2773.02v-.5114a.0582.0582 0 01.0582-.058h.266a.0575.0575 0 01.0572.058zm.9066-4.325h-1.2012c-.109 0-.2071-.0985-.2071-.2075V2.6053c0-.108.098-.1968.207-.1968h1.2013c.1086 0 .1873.0889.1873.1968v7.1512c0 .109-.0787.2074-.1873.2074m1.2287 3.1052c0 .0289-.0236.0434-.0522.0434h-.0088c-.1154-.0145-.1849-.0201-.3725-.0201-.1362 0-.2777.078-.2777.3788v.2685c0 .3006.1415.3789.2777.3789.1876 0 .2571-.006.3725-.0205h.0088c.0286 0 .0522.0145.0522.0434v.188c0 .0462-.0116.0635-.061.0751-.0667.0173-.1965.0374-.3726.0374-.376 0-.6597-.231-.6597-.7024v-.2684c0-.4713.2837-.7028.6597-.7028.176 0 .3059.0201.3726.0374.0494.0116.061.0293.061.0755zm1.6073.6533c0 .4135-.2371.7197-.6908.7197s-.6907-.3062-.6907-.7197v-.2342c0-.4131.237-.7197.6907-.7197s.6908.3066.6908.7197zm1.6488.6357c0 .0317-.0232.061-.055.061h-.2716c-.0318 0-.055-.0293-.055-.061v-.9998c0-.1418-.0286-.2716-.1966-.2716h-.1792c-.1675 0-.1965.1298-.1965.2716v.9998c0 .0317-.0232.061-.055.061h-.2716c-.0318 0-.0547-.0293-.0547-.061v-.9998c0-.35.2021-.5898.5778-.5898h.1793c.3757 0 .5782.2399.5782.5898zm.0858-4.6016V6.2894c0-.4336-.0692-.7384-.5814-.7384h-.4921c-.512 0-.581.3048-.581.7384v3.467c0 .109-.089.2075-.197.2075h-1.2117c-.1087 0-.1873-.0984-.1873-.2074V6.2894c0-1.3593.7584-2.0486 2.177-2.0486h.492c1.4193 0 2.177.6893 2.177 2.0486v3.467c0 .109-.0782.2075-.1869.2075h-1.2118c-.108 0-.1968-.0984-.1968-.2074m1.5977 4.6016c0 .0317-.0233.061-.055.061h-.272c-.0314 0-.0547-.0293-.0547-.061v-.9998c0-.1418-.029-.2716-.1965-.2716h-.1796c-.1675 0-.1965.1298-.1965.2716v.9998c0 .0317-.0229.061-.0546.061h-.272c-.0318 0-.0547-.0293-.0547-.061v-.9998c0-.35.2021-.5898.5778-.5898h.1796c.3757 0 .5782.2399.5782.5898zm1.6944-.6936c0 .0462-.0173.0723-.0575.0723h-.9423v.009c0 .1676.0692.3669.3468.3669.2106 0 .4106-.0173.5316-.029h.0088c.0286 0 .0519.0146.0519.0435v.1908c0 .0462-.0088.0663-.0607.0751-.1877.035-.3005.049-.5605.049-.2893 0-.6996-.1559-.6996-.7256v-.2138c0-.4509.2515-.7341.6936-.7341.4455 0 .6879.3033.6879.734zm1.3628-.5955c0 .029-.0233.0434-.0519.0434h-.0088c-.1153-.0145-.1848-.02-.3729-.02-.1358 0-.2773.078-.2773.3788v.2685c0 .3005.1415.3788.2773.3788.188 0 .2576-.006.373-.0205h.0087c.0286 0 .0519.0145.0519.0434v.188c0 .0463-.0117.0636-.0607.0752-.0667.0173-.1965.0374-.3729.0374-.3757 0-.6593-.2311-.6593-.7024v-.2685c0-.4713.2836-.7027.6593-.7027.1764 0 .3062.02.3729.0374.049.0116.0607.0293.0607.0755zm1.154-.0519a.0582.0582 0 01-.058.058h-.4074v.9334c0 .1157.0522.1358.1764.1358h.2282c.0378 0 .0607.0145.0607.0434v.1792c0 .0289-.0173.0462-.055.0522-.0692.0113-.2166.0229-.338.0229-.286 0-.4568-.0981-.4568-.4336v-1.4566c0-.0321.026-.0522.0582-.0579l.2688-.0466h.0085c.0261 0 .049.0293.049.0582v.283h.4075a.0581.0581 0 01.0579.0578zm.6511 1.341c0 .0316-.026.061-.0578.061h-.266c-.0318 0-.0579-.0294-.0579-.061v-1.5117a.0582.0582 0 01.0579-.058h.266a.0581.0581 0 01.0578.058zm.0088-1.844a.0582.0582 0 01-.0582.0579h-.28c-.0318 0-.0608-.0257-.0608-.058v-.2543c0-.0318.029-.0575.0607-.0575h.2801a.058.058 0 01.0582.0575zm1.7085.341l-.364 1.3152c-.0582.2138-.2142.2717-.3613.2717-.1474 0-.3009-.058-.3584-.2717l-.3644-1.3151c-.0028-.006-.0028-.0145-.0028-.0201a.0458.0458 0 01.0462-.0466h.2893c.0257 0 .0487.0205.0575.0579l.2773 1.211c.0116.055.032.0728.0553.0728.023 0 .0434-.0176.055-.0727l.2774-1.2111c.0088-.0374.0345-.058.0606-.058h.289a.046.046 0 01.0462.0467c0 .006 0 .0145-.0028.02m.6516 1.503c0 .0316-.0262.061-.058.061h-.2655c-.0321 0-.0583-.0294-.0583-.061v-1.5117a.0583.0583 0 01.0583-.058h.2656a.0581.0581 0 01.0579.058zm.0085-1.844a.0576.0576 0 01-.0575.0579h-.2809c-.0317 0-.0603-.0257-.0603-.058v-.2543c0-.0318.0286-.0575.0603-.0575h.2809a.0575.0575 0 01.0575.0575zm1.2114.503a.0578.0578 0 01-.0572.058h-.4078v.9334c0 .1157.0518.1358.1764.1358h.2279c.0377 0 .0606.0145.0606.0434v.1792c0 .0289-.0169.0462-.055.0522-.0691.0113-.2162.0229-.338.0229-.286 0-.456-.0981-.456-.4336v-1.4566c0-.0321.0257-.0522.057-.0579l.2692-.0466h.0085c.0261 0 .0494.0293.0494.0582v.283h.4078a.0577.0577 0 01.0572.0578zm1.6111 1.396c0 .4106-.2081.5838-.6501.5838-.2431 0-.434-.0346-.5408-.0692-.0406-.0116-.058-.0289-.058-.0695v-.1531c0-.0289.0234-.0494.0551-.0494h.0056c.1305.0116.4047.0349.538.0349.2335 0 .2685-.0579.2685-.2572v-.0233c-.0603.0116-.2082.0317-.2773.0317-.4657 0-.6904-.2744-.6904-.7256v-.87a.0576.0576 0 01.0572-.0579h.266a.0584.0584 0 01.0582.058v.8699c0 .237.0606.4138.309.4138.0691 0 .1968-.0116.2773-.0233v-1.2605a.058.058 0 01.0578-.058h.266a.0583.0583 0 01.0579.058zm.0032-9.0989a.1975.1975 0 01-.1968.1972h-1.3487V8.437c0 .3447.157.4036.581.4036h.7384c.1277 0 .2074.0593.2074.1672v.7588c0 .1083-.0695.1775-.1979.1972-.285.049-.7581.0885-1.1814.0885-1.1039 0-1.754-.3453-1.754-1.6256V3.4822c0-.1083.0892-.1775.1979-.1972l1.2012-.2067h.0293c.0889 0 .1781.0984.1781.1972v1.0438h1.3487a.1974.1974 0 01.1968.1969z" fill="#1476c6"/><path d="M2.7153 13.494v.2223c0 .237.0607.4138.3094.4138.1038 0 .2226-.009.2773-.0205V13.101a2.3842 2.3842 0 00-.2773-.0201c-.2487 0-.3094.176-.3094.413m8.468-7.9728c-.5415 0-.906.3743-.906 1.0936v.0388h1.7918v-.0388c0-.7292-.334-1.0936-.8858-1.0936" fill="#1476c6"/></svg>